<svg height="512pt" viewBox="-5 0 512 512" width="512pt" xmlns="http://www.w3.org/2000/svg"><path d="m256.53125 512c-68.519531 0-132.941406-26.683594-181.394531-75.136719s-75.136719-112.875-75.136719-181.394531c0-61.332031 21.121094-124.40625 62.9375-169.167969 74.953125-80.226562 166.199219-86.300781 166.199219-86.300781s-176.46875 201.511719 5.292969 330.058594c128.882812 91.144531 266.140624-44.714844 266.140624-44.714844s12.121094 85.164062-76.863281 164.703125c-45.683593 40.832031-105.824219 61.953125-167.175781 61.953125zm0 0" fill="#1b5c91"/><path d="m234.429688 330.058594c-12.027344-8.507813-22.472657-17.339844-31.519532-26.40625l-130.457031 130.457031c.890625.921875 1.777344 1.84375 2.683594 2.753906 48.453125 48.453125 112.875 75.136719 181.394531 75.136719 61.351562 0 121.492188-21.121094 167.175781-61.953125 88.980469-79.539063 76.863281-164.703125 76.863281-164.703125s-137.257812 135.859375-266.140624 44.714844zm0 0" fill="#0e2e4b"/></svg>